<svg width="20" height="20" viewBox="0 0 20 20" fill="none" xmlns="http://www.w3.org/2000/svg">
<g clip-path="url(#clip0_13453_2178)">
<path d="M13.7493 0C12.6831 0.0737496 11.4368 0.756246 10.7106 1.64499C10.0481 2.45124 9.5031 3.64873 9.7156 4.81247C10.8806 4.84872 12.0843 4.14998 12.7818 3.24623C13.4343 2.40499 13.9281 1.21499 13.7493 0Z" fill="black"/>
<path d="M17.9624 6.71013C16.9387 5.42639 15.5 4.6814 14.1412 4.6814C12.3475 4.6814 11.5887 5.54014 10.3425 5.54014C9.05749 5.54014 8.08125 4.6839 6.53001 4.6839C5.00627 4.6839 3.38378 5.61514 2.35503 7.20763C0.908792 9.45012 1.15629 13.6663 3.50003 17.2576C4.33877 18.5426 5.45877 19.9876 6.92376 20.0001C8.2275 20.0126 8.595 19.1638 10.3612 19.1551C12.1275 19.1451 12.4625 20.0113 13.7637 19.9976C15.23 19.9863 16.4112 18.3851 17.2499 17.1001C17.8512 16.1788 18.0749 15.7151 18.5412 14.6751C15.15 13.3838 14.6062 8.56137 17.9624 6.71013Z" fill="black"/>
</g>
<defs>
<clipPath id="clip0_13453_2178">
<rect width="20" height="20" fill="white"/>
</clipPath>
</defs>
</svg>
