<svg width="11" height="11" viewBox="0 0 11 11" fill="none" xmlns="http://www.w3.org/2000/svg">
<path d="M9.57639 1.1H9.02083V0H7.90972V1.1H3.46528V0H2.35417V1.1H1.79861C1.18194 1.1 0.693056 1.595 0.693056 2.2L0.6875 9.9C0.6875 10.505 1.18194 11 1.79861 11H9.57639C10.1875 11 10.6875 10.505 10.6875 9.9V2.2C10.6875 1.595 10.1875 1.1 9.57639 1.1ZM9.57639 9.9H1.79861V4.4H9.57639V9.9ZM9.57639 3.3H1.79861V2.2H9.57639V3.3ZM4.02083 6.6H2.90972V5.5H4.02083V6.6ZM6.24306 6.6H5.13194V5.5H6.24306V6.6ZM8.46528 6.6H7.35417V5.5H8.46528V6.6ZM4.02083 8.8H2.90972V7.7H4.02083V8.8ZM6.24306 8.8H5.13194V7.7H6.24306V8.8ZM8.46528 8.8H7.35417V7.7H8.46528V8.8Z" fill="#FF6636"/>
</svg>
