<svg width="20" height="20" viewBox="0 0 20 20" fill="none" xmlns="http://www.w3.org/2000/svg">
<g clip-path="url(#clip0_13453_2067)">
<path d="M4.43242 12.0846L3.73625 14.6835L1.19176 14.7373C0.431328 13.3269 0 11.7132 0 9.99832C0 8.34008 0.403281 6.77633 1.11812 5.39941H1.11867L3.38398 5.81473L4.37633 8.06645C4.16863 8.67195 4.05543 9.32195 4.05543 9.99832C4.05551 10.7324 4.18848 11.4357 4.43242 12.0846Z" fill="#FBBB00"/>
<path d="M19.8252 8.13159C19.94 8.73651 19.9999 9.36124 19.9999 9.99972C19.9999 10.7157 19.9246 11.414 19.7812 12.0876C19.2944 14.38 18.0224 16.3816 16.2604 17.7981L16.2598 17.7975L13.4065 17.6519L13.0027 15.131C14.1719 14.4453 15.0857 13.3723 15.567 12.0876H10.2197V8.13159H15.645H19.8252Z" fill="#518EF8"/>
<path d="M16.2595 17.7965L16.2601 17.797C14.5464 19.1745 12.3694 19.9987 9.99965 19.9987C6.19141 19.9987 2.88043 17.8701 1.19141 14.7377L4.43207 12.085C5.27656 14.3388 7.45074 15.9432 9.99965 15.9432C11.0952 15.9432 12.1216 15.647 13.0024 15.13L16.2595 17.7965Z" fill="#28B446"/>
<path d="M16.383 2.30219L13.1434 4.95437C12.2319 4.38461 11.1544 4.05547 10 4.05547C7.39344 4.05547 5.17859 5.73348 4.37641 8.06812L1.11871 5.40109H1.11816C2.78246 2.1923 6.1352 0 10 0C12.4264 0 14.6511 0.864297 16.383 2.30219Z" fill="#F14336"/>
</g>
<defs>
<clipPath id="clip0_13453_2067">
<rect width="20" height="20" fill="white"/>
</clipPath>
</defs>
</svg>
