<svg width="32" height="32" viewBox="0 0 32 32" fill="none" xmlns="http://www.w3.org/2000/svg">
<path opacity="0.2" d="M25 19.1077L20.4004 23.7074C20.2783 23.8295 20.1266 23.9179 19.9602 23.964C19.7938 24.0101 19.6182 24.0123 19.4507 23.9704L12.2061 22.1593C12.0702 22.1253 11.943 22.0631 11.8326 21.9769L5 16.634L9.0718 8.97376L15.4868 7.10356C15.716 7.03676 15.9614 7.05412 16.1789 7.15253L20.5 9.10773H17.9142C17.7829 9.10773 17.6529 9.13359 17.5315 9.18385C17.4102 9.2341 17.3 9.30776 17.2071 9.40062L12.3153 14.2924C12.214 14.3937 12.1356 14.5156 12.0855 14.6499C12.0354 14.7841 12.0148 14.9275 12.0249 15.0704C12.0351 15.2133 12.0758 15.3524 12.1444 15.4782C12.213 15.604 12.3078 15.7136 12.4224 15.7995L13.1 16.3077C13.7924 16.827 14.6345 17.1077 15.5 17.1077C16.3655 17.1077 17.2076 16.827 17.9 16.3077L19.5 15.1077L25 19.1077Z" fill="#E34444"/>
<path d="M30.0897 15.2231L27 16.7679L23 9.10768L26.1212 7.5471C26.3557 7.42986 26.6268 7.40939 26.8763 7.4901C27.1257 7.57082 27.3335 7.74626 27.4548 7.97866L30.5289 13.8658C30.5904 13.9835 30.6278 14.1123 30.639 14.2446C30.6501 14.377 30.6348 14.5102 30.5939 14.6365C30.553 14.7629 30.4874 14.8798 30.4008 14.9805C30.3143 15.0812 30.2085 15.1637 30.0897 15.2231V15.2231Z" stroke="#E34444" stroke-width="2" stroke-linecap="round" stroke-linejoin="round"/>
<path d="M4.99991 16.6339L1.91021 15.0891C1.79143 15.0297 1.68567 14.9472 1.5991 14.8465C1.51253 14.7458 1.44688 14.6289 1.406 14.5025C1.36511 14.3762 1.3498 14.2429 1.36096 14.1106C1.37212 13.9783 1.40953 13.8495 1.471 13.7318L4.54511 7.84463C4.66646 7.61223 4.87422 7.43679 5.12366 7.35607C5.3731 7.27535 5.64426 7.29582 5.87875 7.41307L8.99991 8.97365L4.99991 16.6339Z" stroke="#E34444" stroke-width="2" stroke-linecap="round" stroke-linejoin="round"/>
<path d="M27 16.7679L25 19.1076L20.4004 23.7073C20.2783 23.8294 20.1266 23.9178 19.9602 23.9639C19.7938 24.01 19.6182 24.0122 19.4507 23.9703L12.2061 22.1592C12.0702 22.1252 11.943 22.063 11.8326 21.9768L5 16.6339" stroke="#E34444" stroke-width="2" stroke-linecap="round" stroke-linejoin="round"/>
<path d="M25.0001 19.1077L19.5001 15.1077L17.9001 16.3077C17.2077 16.827 16.3655 17.1077 15.5001 17.1077C14.6346 17.1077 13.7924 16.827 13.1001 16.3077L12.4225 15.7995C12.3078 15.7135 12.213 15.6039 12.1445 15.4781C12.0759 15.3523 12.0351 15.2133 12.025 15.0704C12.0148 14.9274 12.0355 14.784 12.0856 14.6498C12.1357 14.5156 12.214 14.3937 12.3154 14.2924L17.2072 9.40056C17.3 9.3077 17.4103 9.23404 17.5316 9.18379C17.6529 9.13353 17.7829 9.10767 17.9143 9.10767H23.0001" stroke="#E34444" stroke-width="2" stroke-linecap="round" stroke-linejoin="round"/>
<path d="M9.07129 8.97375L15.4863 7.10356C15.7154 7.03676 15.9609 7.05412 16.1784 7.15253L20.4995 9.10773" stroke="#E34444" stroke-width="1.5" stroke-linecap="round" stroke-linejoin="round"/>
<path d="M14 26.6077L10.2326 25.6658C10.0797 25.6276 9.938 25.5538 9.81907 25.4504L7 23" stroke="#E34444" stroke-width="1.5" stroke-linecap="round" stroke-linejoin="round"/>
</svg>
