<svg width="17" height="18" viewBox="0 0 17 18" fill="none" xmlns="http://www.w3.org/2000/svg">
<path d="M2.55 17.5C1.84167 17.5 1.23958 17.2521 0.74375 16.7563C0.247917 16.2604 0 15.6583 0 14.95V12.4H2.55V0.5H15.3V8.235C15.0167 8.16417 14.7298 8.14292 14.4394 8.17125C14.149 8.19958 13.8692 8.27042 13.6 8.38375V2.2H4.25V12.4H9.35L7.65 14.1H1.7V14.95C1.7 15.1908 1.78146 15.3927 1.94438 15.5556C2.10729 15.7185 2.30917 15.8 2.55 15.8H7.65V17.5H2.55ZM9.35 17.5V14.8013L13.005 11.1462L13.9187 12.06L10.625 15.3325V16.225H11.5175L14.8112 12.9525L15.7038 13.845L12.0487 17.5H9.35ZM15.7038 13.845L13.005 11.1462L14.0675 10.0837C14.2233 9.92792 14.4217 9.85 14.6625 9.85C14.9033 9.85 15.1017 9.92792 15.2575 10.0837L16.7663 11.5925C16.9221 11.7483 17 11.9467 17 12.1875C17 12.4283 16.9221 12.6267 16.7663 12.7825L15.7038 13.845ZM5.1 6.45V4.75H12.75V6.45H5.1ZM5.1 9V7.3H12.75V9H5.1Z" fill="#7B61FF"/>
</svg>
