<svg width="32" height="32" viewBox="0 0 32 32" fill="none" xmlns="http://www.w3.org/2000/svg">
<path opacity="0.2" d="M5.27927 5.37325C5.13023 5.32978 4.97312 5.32161 4.82038 5.34938C4.66764 5.37715 4.52346 5.4401 4.39927 5.53325C4.27507 5.6264 4.17427 5.74718 4.10484 5.88604C4.03541 6.02489 3.99927 6.17801 3.99927 6.33325V23.6666C3.99927 23.8218 4.03541 23.9749 4.10484 24.1138C4.17427 24.2527 4.27507 24.3734 4.39927 24.4666C4.52346 24.5597 4.66764 24.6227 4.82038 24.6505C4.97312 24.6782 5.13023 24.6701 5.27927 24.6266L17 21.208V8.79179L5.27927 5.37325Z" fill="#564FFD"/>
<path d="M3.99927 6.33325V23.6666C3.99927 23.8218 4.03541 23.9749 4.10484 24.1138C4.17427 24.2527 4.27507 24.3734 4.39927 24.4666C4.52346 24.5597 4.66764 24.6227 4.82038 24.6505C4.97312 24.6782 5.13023 24.6701 5.27927 24.6266L27.2793 18.2099C27.487 18.1493 27.6694 18.023 27.7993 17.8499C27.9291 17.6768 27.9993 17.4663 27.9993 17.2499V12.7499C27.9993 12.5335 27.9291 12.323 27.7993 12.1499C27.6694 11.9768 27.487 11.8505 27.2793 11.7899L5.27927 5.37325C5.13023 5.32978 4.97312 5.32161 4.82038 5.34938C4.66764 5.37715 4.52346 5.4401 4.39927 5.53325C4.27507 5.6264 4.17427 5.74718 4.10484 5.88604C4.03541 6.02489 3.99927 6.17801 3.99927 6.33325V6.33325Z" stroke="#564FFD" stroke-width="2" stroke-linecap="round" stroke-linejoin="round"/>
<path d="M23 19.4582V24.0001C23 24.2653 22.8946 24.5197 22.7071 24.7072C22.5196 24.8948 22.2652 25.0001 22 25.0001H18C17.7348 25.0001 17.4804 24.8948 17.2929 24.7072C17.1054 24.5197 17 24.2653 17 24.0001V8.79199" stroke="#564FFD" stroke-width="2" stroke-linecap="round" stroke-linejoin="round"/>
</svg>
