<svg width="16" height="15" viewBox="0 0 16 15" fill="none" xmlns="http://www.w3.org/2000/svg">
<g clip-path="url(#clip0_4009_14)">
<path d="M8.32031 1.25C4.87031 1.25 2.07031 4.05 2.07031 7.5C2.07031 10.95 4.87031 13.75 8.32031 13.75C11.7703 13.75 14.5703 10.95 14.5703 7.5C14.5703 4.05 11.7703 1.25 8.32031 1.25ZM5.41406 11.5625C6.23281 10.975 7.23281 10.625 8.32031 10.625C9.40781 10.625 10.4078 10.975 11.2266 11.5625C10.4078 12.15 9.40781 12.5 8.32031 12.5C7.23281 12.5 6.23281 12.15 5.41406 11.5625ZM12.1578 10.7C11.1016 9.875 9.77031 9.375 8.32031 9.375C6.87031 9.375 5.53906 9.875 4.48281 10.7C3.75781 9.83125 3.32031 8.71875 3.32031 7.5C3.32031 4.7375 5.55781 2.5 8.32031 2.5C11.0828 2.5 13.3203 4.7375 13.3203 7.5C13.3203 8.71875 12.8828 9.83125 12.1578 10.7Z" fill="#FF6636"/>
<path d="M8.32031 3.75C7.11406 3.75 6.13281 4.73125 6.13281 5.9375C6.13281 7.14375 7.11406 8.125 8.32031 8.125C9.52656 8.125 10.5078 7.14375 10.5078 5.9375C10.5078 4.73125 9.52656 3.75 8.32031 3.75ZM8.32031 6.875C7.80156 6.875 7.38281 6.45625 7.38281 5.9375C7.38281 5.41875 7.80156 5 8.32031 5C8.83906 5 9.25781 5.41875 9.25781 5.9375C9.25781 6.45625 8.83906 6.875 8.32031 6.875Z" fill="#FF6636"/>
</g>
<defs>
<clipPath id="clip0_4009_14">
<rect width="15" height="15" fill="white" transform="translate(0.820312)"/>
</clipPath>
</defs>
</svg>
